# xmcd
# 
# Track frame offsets:
#     150
#     17395
#     35130
#     52376
# 
# Disc length: 935
# 
# Revision: 0
# Processed by: cddbd v1.5.2PL0 Copyright (c) Steve Scherf et al.
# Submitted via: fre:ac v1.0.31
# 
DISCID=3103a504
DTITLE=miwa - Storyteller／ティーンエイジドリーム
DYEAR=2019
DGENRE=
TTITLE0=Storyteller
TTITLE1=ティーンエイジドリーム
TTITLE2=サクライロノキセツ (OFF VOCAL)
TTITLE3=チェーリング (OFF VOCAL)
EXTD=
EXTT0=
EXTT1=
EXTT2=
EXTT3=
PLAYORDER=
